PathFileType	4	(X/Y/Z)	Run_300 02
DataRate	CameraRate	NumFrames	NumMarkers	Units	OrigDataRate	OrigDataStartFrame	OrigNumFrames
100	100	7	42	mm	100	85	128
Frame#	Time	LASI			RASI			LPSI			RPSI			RTH1			RTH2			RTH3			LTH1			LTH2			LTH3			RTB1			RTB2			RTB3			LTB1			LTB2			LTB3			RCAL			RTOE			RMT5			LCAL			LTOE			LMT5			LACR			RACR			CLAV			C7			RUA1			RUA2			RUA3			RLEL			RMEL			LUA1			LUA2			LUA3			LLEL			LMEL			RFAsuperior			RFAradius			RFAulna			LFAsuperior			LFAradius			LFAulna			
		X1	Y1	Z1	X2	Y2	Z2	X3	Y3	Z3	X4	Y4	Z4	X5	Y5	Z5	X6	Y6	Z6	X7	Y7	Z7	X8	Y8	Z8	X9	Y9	Z9	X10	Y10	Z10	X11	Y11	Z11	X12	Y12	Z12	X13	Y13	Z13	X14	Y14	Z14	X15	Y15	Z15	X16	Y16	Z16	X17	Y17	Z17	X18	Y18	Z18	X19	Y19	Z19	X20	Y20	Z20	X21	Y21	Z21	X22	Y22	Z22	X23	Y23	Z23	X24	Y24	Z24	X25	Y25	Z25	X26	Y26	Z26	X27	Y27	Z27	X28	Y28	Z28	X29	Y29	Z29	X30	Y30	Z30	X31	Y31	Z31	X32	Y32	Z32	X33	Y33	Z33	X34	Y34	Z34	X35	Y35	Z35	X36	Y36	Z36	X37	Y37	Z37	X38	Y38	Z38	X39	Y39	Z39	X40	Y40	Z40	X41	Y41	Z41	X42	Y42	Z42	

82	1.24	938.619	928.899669	-424.724371	931.516694	961.590645	-185.114608	775.080977	980.9921890000001	-366.819462	763.728085	988.043468	-268.334562	936.381048	730.133952	-127.949974	1022.13351	675.975668	-146.610506	1000.614569	569.880401	-166.231487	895.740459	730.031922	-465.884041	942.397996	623.800119	-456.211139	881.514003	521.371101	-443.724769	1042.988975	362.772739	-246.657158	992.8032909999999	291.724676	-203.09226	976.651662	188.179646	-275.355147	796.921048	369.472364	-385.640664	703.679088	405.074339	-443.878653	603.505348	354.603505	-376.999891	842.7860439999999	108.287658	-301.754225	1065.121627	68.49182500000001	-307.294142	1010.778275	50.28406	-207.022976	489.389093	436.192119	-352.463958	446.182937	223.716598	-375.563186	419.737327	283.54604	-465.239146	931.506789	1430.062631	-454.220258	929.676143	1412.87925	-151.927899	1016.614568	1345.903593	-287.218371	884.656447	1454.69784	-296.489021	859.753953	1315.624894	-55.228546	778.3885749999999	1282.241255	-86.30547799999999	789.277316	1213.34463	-24.850658	740.859428	1162.82387	-0.936536	710.493171	1149.728907	-71.56226599999999	868.727298	1329.6206	-545.266266	806.948717	1272.164439	-523.806101	846.812647	1243.602773	-597.871822	817.663825	1169.530479	-635.733479	783.978306	1139.45828	-576.7823509999999	835.86857	1096.006001	-7.218531	938.4684559999999	1038.243862	-82.442352	893.652788	987.753976	-57.855873	927.88841	1155.718946	-589.369976	1017.450298	1100.697235	-488.56473	1021.067126	1065.00267	-545.568002	
83	1.25	935.572574	925.5954840000001	-424.884257	928.429068	959.727691	-184.305018	772.191488	977.862287	-367.027406	759.986193	985.0720679999999	-267.7747	930.746475	725.493868	-128.708139	1013.660219	666.431657	-146.747231	988.367697	561.840326	-168.513423	900.908763	727.410232	-466.166622	956.322937	623.942691	-454.805006	901.392445	519.28199	-443.608092	1025.058259	354.305449	-246.619786	971.466559	285.412226	-204.400924	950.153819	183.738787	-276.101493	821.7551570000001	368.453527	-384.668034	729.112541	403.785064	-442.878664	628.474118	355.004413	-375.89678	812.786622	108.569938	-301.470927	1035.148182	67.60584900000001	-307.109689	980.436951	50.237999	-206.316168	512.151806	437.425757	-352.298922	471.662589	223.695568	-375.761495	449.040419	283.0284	-466.630857	930.980179	1426.348523	-454.60829	929.534931	1408.647987	-152.277866	1015.235567	1341.542927	-288.170721	883.753953	1451.534168	-297.984822	864.590944	1306.978547	-55.91343	783.1921579999999	1270.883693	-82.110484	800.3911859999999	1203.411563	-20.712943	755.510349	1150.941162	5.567667	721.9090639999999	1136.174956	-62.859395	863.958839	1327.406254	-544.714559	801.515957	1271.233648	-519.373232	837.584732	1241.957277	-595.064874	806.342752	1168.176786	-632.335079	773.1963490000001	1138.785902	-572.3702479999999	852.374761	1087.056051	-5.141656	953.201464	1030.359345	-82.69883400000001	909.566811	979.3919069999999	-56.021835	917.50039	1151.837274	-589.15011	1007.078352	1092.354545	-492.587266	1007.403954	1059.034405	-550.650974	
84	1.26	932.292062	924.066462	-425.795991	925.8711479999999	957.065208	-184.747338	769.4066350000001	976.476478	-366.482454	755.417176	983.791257	-265.501074	923.608754	721.210438	-129.43064	1004.359533	657.415409	-147.226717	975.77574	554.7923929999999	-170.224212	905.503293	726.45005	-466.566321	970.0427529999999	626.205601	-454.103671	921.5899449999999	519.363836	-443.365866	1004.021963	347.703928	-249.778083	950.10592	279.976412	-206.512475	922.6531680000001	180.737583	-278.148052	847.173326	369.380975	-383.401276	755.1752	403.383936	-441.639669	654.380637	354.945788	-374.671554	782.551653	108.989913	-301.460988	1004.887886	67.217483	-307.180277	949.868638	50.554217	-205.952216	534.757613	436.77442	-353.069954	499.592079	221.218654	-374.740836	480.588898	279.088877	-467.573321	930.162897	1424.074623	-454.834541	930.072531	1405.23074	-152.457927	1013.920764	1338.154415	-288.951395	881.7189090000001	1449.066132	-298.434521	868.507972	1300.972204	-57.265792	788.3204930000001	1260.846031	-78.505549	811.999984	1195.345432	-16.927889	770.8627750000001	1141.098164	11.612335	734.250868	1124.602989	-54.483041	859.2709139999999	1326.316136	-544.240437	796.543368	1272.014794	-515.545479	829.041018	1241.300828	-592.2168809999999	795.513209	1167.911472	-628.564853	763.213061	1139.385645	-567.586084	869.258223	1080.110153	-3.45054	968.439569	1024.770332	-84.37371400000001	926.347658	973.434112	-54.6923	907.672324	1148.3768	-588.841511	996.612959	1085.681911	-496.370497	993.862763	1054.674594	-555.343219	
85	1.27	928.909158	924.219007	-427.108225	923.537149	954.208783	-186.035485	766.528461	976.492781	-365.564158	750.3766429999999	984.041062	-262.556094	915.646668	718.031612	-130.068519	994.8283730000001	651.077226	-148.058727	963.6166930000001	549.7443469999999	-170.796854	909.927473	727.454885	-467.064734	982.583718	631.182	-454.280745	941.202446	522.3163060000001	-442.962909	980.671441	343.560426	-255.131904	927.990653	276.403665	-207.714104	894.894956	179.029673	-279.569118	872.743325	372.537259	-381.487805	781.3156269999999	403.874091	-440.468778	680.77433	354.387115	-373.529115	752.282248	109.632042	-301.215486	974.546887	67.226714	-307.111928	919.323296	50.723721	-205.67556	557.066009	433.896994	-354.576796	529.931517	216.596421	-372.864395	513.167706	272.185245	-467.874408	928.567859	1423.309385	-454.959176	931.018822	1402.973833	-152.535143	1012.677608	1336.203212	-289.706916	879.658873	1447.82409	-297.549562	872.05366	1297.571237	-58.274697	794.163964	1252.458856	-75.403142	823.750033	1189.304612	-13.459829	786.352304	1133.518045	17.081706	747.3576430000001	1115.352397	-46.939627	854.547316	1326.312575	-543.644426	791.676092	1273.902775	-512.523453	821.2036900000001	1241.551393	-589.371446	785.216002	1168.836141	-624.647908	754.003461	1141.294839	-562.654441	885.9498589999999	1075.353817	-2.012996	983.7778530000001	1022.413396	-87.17873899999999	943.980097	970.3706110000001	-54.392285	898.2875330000001	1145.633233	-588.140596	986.59901	1080.41402	-500.077927	980.728457	1051.584727	-559.999004	
86	1.28	925.503186	925.806793	-428.598365	920.901901	952.188803	-187.704268	763.49078	977.630342	-364.553871	746.056572	985.431241	-260.206805	907.131111	716.099552	-130.616696	984.877872	647.276559	-148.896592	950.84587	546.492236	-170.448829	914.327042	730.324294	-467.638725	993.53185	638.72451	-454.970228	959.5183960000001	528.3067579999999	-442.334042	956.1612280000001	341.321789	-260.562181	904.405897	274.542058	-207.34479	867.407501	177.981908	-279.437811	898.134398	377.89732	-378.908735	807.069191	405.369617	-439.458558	707.318471	353.29731	-372.600554	722.261984	110.511194	-300.683696	944.3954670000001	67.28030099999999	-306.772699	889.052654	50.590766	-205.312806	578.963024	428.622128	-356.393199	562.674391	210.06923	-370.414802	545.893964	262.68361	-467.228495	926.359815	1423.826564	-455.047652	931.921769	1402.163085	-152.713806	1011.500823	1335.825345	-290.625135	878.487353	1447.991599	-296.327275	876.146077	1296.317843	-58.340748	801.038459	1246.143792	-72.774986	835.507232	1185.50282	-10.380588	801.746569	1128.316834	21.858274	761.047254	1108.514817	-40.4487	849.826595	1327.487508	-542.869838	786.830915	1276.714754	-509.993889	813.943263	1242.908762	-586.685006	775.350992	1171.077877	-620.827039	744.998559	1144.588968	-557.682271	902.464634	1073.259997	-1.049806	999.086744	1023.933456	-90.61714600000001	962.4082550000001	970.61001	-55.666893	889.021803	1144.230994	-586.8553460000001	977.041009	1076.298953	-503.623617	967.947897	1049.547092	-564.523162	
87	1.29	922.213761	928.555801	-430.088197	917.720504	951.720416	-189.341154	760.509962	979.7214279999999	-363.513966	744.057654	987.60008	-259.424335	898.222611	715.204608	-131.123543	974.1532120000001	644.61548	-149.52881	936.257103	544.3008170000001	-169.862713	918.610893	734.752405	-468.239592	1003.077891	648.131317	-455.711867	976.247492	536.760328	-441.451777	931.446622	340.188015	-264.46388	879.399671	273.577162	-206.178733	840.113803	177.298692	-278.345905	923.093171	385.165055	-375.976855	832.040959	407.983273	-438.490161	733.843487	351.679349	-371.946585	692.561506	111.654061	-300.14489	914.470587	67.237962	-306.247637	858.99165	50.360145	-204.84588	600.489434	420.936235	-358.19986	597.665808	201.85	-367.551724	578.499382	250.918546	-465.562334	923.929204	1425.339656	-455.239309	932.491946	1402.928599	-153.132425	1010.461231	1336.861421	-291.804629	878.138072	1449.338814	-295.882403	881.495774	1296.684462	-57.609285	808.802177	1242.331602	-70.45065200000001	847.212771	1184.061671	-7.841483	816.997845	1125.561988	25.814389	774.9536430000001	1104.028801	-34.925356	845.069844	1329.892194	-542.038273	782.1261009999999	1280.610825	-507.487429	806.918459	1245.641277	-584.345331	765.626937	1174.755015	-617.267722	735.825478	1149.260207	-552.882555	918.931319	1074.316738	-0.935138	1014.268218	1029.377937	-94.383734	981.203228	974.342986	-58.716515	879.517003	1144.689932	-585.32193	967.554436	1073.365614	-506.546032	955.208611	1048.705724	-568.433656	
88	1.3	919.358884	932.202893	-431.271479	914.452212	952.740055	-190.546427	757.958825	982.653539	-362.539098	745.012473	990.309247	-260.405808	889.054535	715.08722	-131.699867	962.24342	641.952263	-150.029143	919.476416	542.574215	-169.678792	922.6835610000001	740.533725	-468.886389	1011.692321	658.834126	-456.306652	991.478565	546.884619	-440.43521	906.984464	339.62366	-266.28337	853.434169	272.868165	-205.317624	812.593015	177.115484	-277.311543	947.387123	393.886166	-373.114137	855.8675459999999	411.611128	-437.419237	760.31013	349.569178	-371.489721	663.065297	113.202823	-299.763403	884.591153	67.193034	-305.671841	828.863575	50.203503	-204.342346	621.826118	410.913385	-359.867426	634.6519970000001	192.23588	-364.484552	611.399577	237.327359	-463.199789	921.500231	1427.653772	-455.672122	932.76908	1405.282186	-153.839591	1009.632561	1339.090969	-293.21937	877.8470139999999	1451.532715	-296.394058	888.177902	1298.417989	-56.736861	816.905337	1241.29381	-68.022447	858.727382	1184.890321	-5.95107	831.9690430000001	1125.232844	28.857509	788.662675	1101.804918	-30.254736	840.0993570000001	1333.508417	-541.316763	777.60139	1285.729705	-504.766712	799.642791	1249.923144	-582.384804	755.661009	1179.9787	-614.011989	726.523331	1155.246528	-548.537545	935.143702	1078.583207	-1.814647	1029.016013	1038.233371	-98.456429	999.627642	981.4116299999999	-63.201468	869.523268	1147.185674	-584.218084	957.786731	1071.864606	-508.356504	942.214307	1049.500682	-571.332435	
